Bad Teacher 2011 TS - PRESTiGE
[img]http://www.leetleech.org/images/43795296932110029685.jpg[/img]

[img]http://leetleech.org/images/13530174178084517428.png[/img]

File size                        : 707 MiB
Duration                         : 1h 27mn
Overall bit rate                 : 1 130 Kbps


Video
ID                               : 0
Format                           : MPEG-4 Visual
Format profile                   : Advanced Simple@L5
Format settings, BVOP            : 2
Format settings, QPel            : No
Format settings, GMC             : No warppoints
Format settings, Matrix          : Default (H.263)
Muxing mode                      : Packed bitstream
Codec ID                         : XVID
Codec ID/Hint                    : XviD
Duration                         : 1h 27mn
Bit rate                         : 993 Kbps
Width                            : 720 pixels
Height                           : 320 pixels
Display aspect ratio             : 2.25:1
Frame rate                       : 25.000 fps
Color space                      : YUV
Chroma subsampling               : 4:2:0
Bit depth                        : 8 bits
Scan type                        : Progressive
Compression mode                 : Lossy
Bits/(Pixel*Frame)               : 0.172
Stream size                      : 621 MiB (88%)
Writing library                  : XviD 1.2.0.dev47 (UTC 2006-11-01)

Audio
ID                               : 1
Format                           : MPEG Audio
Format version                   : Version 1
Format profile                   : Layer 3
Mode                             : Joint stereo
Mode extension                   : MS Stereo
Codec ID                         : 55
Codec ID/Hint                    : MP3
Duration                         : 1h 27mn
Bit rate mode                    : Constant
Bit rate                         : 128 Kbps
Channel(s)                       : 2 channels
Sampling rate                    : 44.1 KHz
Compression mode                 : Lossy
Delay relative to video          : 26ms
Stream size                      : 80.1 MiB (11%)
Alignment                        : Split accross interleaves
Interleave, duration             : 40 ms (1.00 video frame)
Interleave, preload duration     : 500 ms

source - Imagine :bow:

[img]http://leetleech.org/images/71127130776089801699.png[/img]

A comedy centered around a foul-mouthed, junior high teacher who,
 after being dumped by her sugar daddy, begins to woo a colleague -- 
a move that pits her against a well-loved teacher

[img]http://leetleech.org/images/01895286609658094174.png[/img]

Cameron Diaz ... Elizabeth Halsey
Lucy Punch ... Amy Squirrel
Jason Segel ... Russell Gettis
Justin Timberlake ... Scott Delacorte
Phyllis Smith ... Lynn Davies
John Michael Higgins ... Principal Wally Snur 

[img]http://leetleech.org/images/10125376355615316589.png[/img]
 
http://www.leetleech.org/images/87089903650177690132.png 
http://www.leetleech.org/images/96233129950803169744.png 
http://www.leetleech.org/images/81896031901184103425.png 
http://www.leetleech.org/images/33474942236728772723.png

[IMG]http://i867.photobucket.com/albums/ab233/paranoid53/Forum%20Saved/PRESTwizard.png[/IMG]
    Info hash: DF4E6094DC8B7F174F4B65E1E50A6B579112DAB2

[code]Tracker list 
http://genesis.1337x.org:1337/announce
[/code]
[img]http://torrent-stats.info/65e1/92a5fa9f.png[/img]